<svg width="512" height="512" viewBox="0 0 512 512" fill="none" xmlns="http://www.w3.org/2000/svg">
<circle cx="256" cy="256" r="256" fill="#3D627D"/>
<path d="M369.069 168.89C369.069 267.811 298.083 282.742 264.61 282.741C206.168 282.74 175.655 311.348 167.316 319.592C180.474 289.244 218.941 241.813 264.61 235.997C290.699 232.675 351.788 232.639 369.069 168.89ZM358.103 131C358.103 209.038 305.564 224.212 279.157 224.212C233.052 224.211 208.982 250.225 202.403 256.729C213.368 237.478 243.129 191.949 279.157 187.361C299.738 184.74 344.471 181.291 358.103 131Z" fill="#D0EF39"/>
<path d="M367.567 292.124C378.566 289.956 327.973 348.482 253.184 348.482C200.391 348.483 155.665 371.605 141 380.998C151.265 352.096 191.593 292.124 275.181 294.292C279.673 294.409 270.781 305.131 253.184 307.298C244.385 308.382 236.349 321.757 253.184 326.807C303.776 341.981 356.569 294.292 367.567 292.124ZM355.902 284.513C373.487 283.909 319.31 320.464 288.607 323.693C288.604 323.694 288.601 323.696 288.598 323.696C314.293 303.293 316.358 286.602 320.733 285.832C327.3 284.677 322.991 298.469 312.116 309.87C327.075 297.663 332.037 285.333 338.315 285.116C342.712 284.965 334.299 296.1 330.055 300.583C340.894 295.873 349.307 284.739 355.902 284.513Z" fill="#B9DDF1"/>
</svg>
