<svg width="370" height="160" viewBox="0 0 370 160" fill="none" xmlns="http://www.w3.org/2000/svg">
<path d="M342.381 0L343.333 6.20896L276.429 101.254L276.19 97.4328H349.048C355.556 97.4328 359.683 96.5572 361.429 94.806C363.175 92.8955 364.365 89.7114 365 85.2537H369.048C369.048 93.0547 369.127 99.0249 369.286 103.164C369.444 107.303 369.683 111.124 370 114.627C368.889 114.308 367.063 114.149 364.524 114.149C362.143 113.99 359.286 113.831 355.952 113.672C352.619 113.512 349.127 113.433 345.476 113.433C341.825 113.433 338.175 113.433 334.524 113.433H265V108.418L342.381 0ZM346.19 0V160H327.143V25.3134L342.381 0H346.19Z" fill="#243E52"/>
<path d="M190.789 0C202.94 0 213.637 2.82388 222.879 8.47164C232.292 13.9483 239.651 21.7353 244.956 31.8328C250.262 41.9304 252.914 53.8249 252.914 67.5164C252.914 81.208 250.176 93.5303 244.7 104.484C239.223 115.266 231.607 123.823 221.852 130.155C212.268 136.316 200.972 139.397 187.965 139.397C176.156 139.397 165.545 136.659 156.132 131.182C146.719 125.534 139.275 117.662 133.798 107.564C128.493 97.2955 125.84 85.3154 125.84 71.6239C125.84 58.1035 128.493 45.9522 133.798 35.1701C139.275 24.3881 146.891 15.8309 156.646 9.49851C166.401 3.16617 177.782 0 190.789 0ZM188.479 4.62089C177.525 4.62089 168.455 10.4398 161.267 22.0776C154.25 33.7154 150.741 49.9741 150.741 70.8537C150.741 86.2567 152.538 98.6647 156.132 108.078C159.726 117.319 164.518 124.08 170.508 128.358C176.67 132.637 183.259 134.776 190.276 134.776C201.4 134.776 210.471 128.957 217.488 117.319C224.505 105.51 228.013 89.1662 228.013 68.2866C228.013 52.8836 226.216 40.5612 222.622 31.3194C219.028 21.9065 214.236 15.1463 208.246 11.0388C202.256 6.7602 195.667 4.62089 188.479 4.62089Z" fill="#243E52"/>
<path d="M77.3809 0L78.3333 6.20896L11.4286 101.254L11.1905 97.4328H84.0476C90.5555 97.4328 94.6825 96.5572 96.4286 94.806C98.1746 92.8955 99.3651 89.7114 100 85.2537H104.048C104.048 93.0547 104.127 99.0249 104.286 103.164C104.444 107.303 104.683 111.124 105 114.627C103.889 114.308 102.063 114.149 99.5238 114.149C97.1428 113.99 94.2857 113.831 90.9524 113.672C87.619 113.512 84.127 113.433 80.4762 113.433C76.8254 113.433 73.1746 113.433 69.5238 113.433H0V108.418L77.3809 0ZM81.1905 0V160H62.1429V25.3134L77.3809 0H81.1905Z" fill="#243E52"/>
</svg>
