<svg width="56" height="56" viewBox="0 0 56 56" fill="none" xmlns="http://www.w3.org/2000/svg">
<rect x="0.5" y="0.5" width="55" height="55" rx="27.5" fill="#3D627D"/>
<rect x="0.5" y="0.5" width="55" height="55" rx="27.5" stroke="#3D627D"/>
<path d="M28.5 19C28.7761 19 29 19.2239 29 19.5C29 22.8273 31.1366 24.9392 33.96 26.2461C36.7908 27.5564 40.2133 28 42.5 28C42.5344 28 42.5681 28.0031 42.6006 28.0098C42.6656 28.0231 42.7261 28.0491 42.7793 28.085C42.8328 28.121 42.879 28.1672 42.915 28.2207C42.9509 28.2739 42.977 28.3344 42.9902 28.3994C42.9969 28.4319 43 28.4656 43 28.5C43 28.5344 42.9969 28.5681 42.9902 28.6006C42.977 28.6656 42.9509 28.7261 42.915 28.7793C42.879 28.8328 42.8328 28.879 42.7793 28.915C42.7261 28.9509 42.6656 28.977 42.6006 28.9902C42.5681 28.9969 42.5344 29 42.5 29C40.2133 29 36.7908 29.4436 33.96 30.7539C31.1366 32.0608 29 34.1727 29 37.5C29 37.7761 28.7761 38 28.5 38C28.2239 38 28 37.7761 28 37.5C28 33.6274 30.5302 31.2398 33.54 29.8467C34.2626 29.5122 35.0188 29.233 35.7832 29H14.5C14.2239 28.9999 14.0001 28.7761 14 28.5C14.0001 28.2239 14.2239 28.0001 14.5 28H35.7832C35.0188 27.767 34.2626 27.4878 33.54 27.1533C30.5302 25.7602 28 23.3726 28 19.5C28 19.2239 28.2239 19 28.5 19Z" fill="white"/>
</svg>
