<svg width="42" height="42" viewBox="0 0 42 42" fill="none" xmlns="http://www.w3.org/2000/svg">
<rect width="42" height="42" rx="21" fill="white"/>
<path fill-rule="evenodd" clip-rule="evenodd" d="M15.8515 12.5C15.4272 12.5001 15.018 12.6582 14.7056 12.9444L13.0915 14.5621C11.4782 16.2547 13.2625 20.7417 17.259 24.7228C21.2557 28.7038 25.7493 30.563 27.4472 28.8793L29.0613 27.27C29.3432 26.9595 29.5 26.5547 29.5 26.1359C29.4999 25.7172 29.3432 25.3136 29.0613 25.0032L26.6865 22.585C26.4979 22.3871 26.2609 22.241 25.9989 22.1616C25.7371 22.0822 25.4589 22.0725 25.1919 22.1322C24.9247 22.1919 24.6776 22.3203 24.4748 22.5037C24.2721 22.6869 24.1205 22.919 24.0347 23.178C23.8992 23.5438 23.6343 23.8491 23.2909 24.0359C22.9476 24.2226 22.5479 24.2787 22.1661 24.1943C20.465 23.7712 18.1728 21.5504 17.7483 19.7939C17.6446 19.4118 17.6934 19.0046 17.8833 18.657C18.0731 18.3095 18.3896 18.0484 18.7677 17.928C19.0229 17.8424 19.2516 17.6921 19.4327 17.4934C19.6137 17.2948 19.7414 17.0538 19.8025 16.7925C19.8636 16.531 19.8572 16.2571 19.7828 15.999C19.7085 15.7413 19.5686 15.5069 19.3779 15.3177L16.9989 12.9444C16.6863 12.658 16.276 12.5 15.8515 12.5Z" fill="#3D627D"/>
<path fill-rule="evenodd" clip-rule="evenodd" d="M14.7056 12.9444C15.018 12.6582 15.4272 12.5001 15.8515 12.5C16.276 12.5 16.6863 12.658 16.9989 12.9444L19.3779 15.3177C19.5686 15.5069 19.7085 15.7413 19.7828 15.999C19.8572 16.2571 19.8636 16.531 19.8025 16.7925C19.7414 17.0538 19.6137 17.2948 19.4327 17.4934C19.2516 17.6921 19.0229 17.8424 18.7677 17.928C18.3896 18.0484 18.0731 18.3095 17.8833 18.657C17.6934 19.0046 17.6446 19.4118 17.7483 19.7939C18.1728 21.5504 20.465 23.7712 22.1661 24.1943C22.5479 24.2787 22.9476 24.2226 23.2909 24.0359C23.6343 23.8491 23.8992 23.5438 24.0347 23.178C24.1205 22.919 24.2721 22.6869 24.4748 22.5037C24.6776 22.3203 24.9247 22.1919 25.1919 22.1322C25.4589 22.0725 25.7371 22.0822 25.9989 22.1616C26.2609 22.241 26.4979 22.3871 26.6865 22.585L29.0613 25.0032C29.3432 25.3136 29.4999 25.7172 29.5 26.1359C29.5 26.5547 29.3432 26.9595 29.0613 27.27L27.4472 28.8793C25.7493 30.563 21.2557 28.7038 17.259 24.7228C13.2625 20.7417 11.4782 16.2547 13.0915 14.5621L14.7056 12.9444Z" fill="#3D627D"/>
</svg>
