<svg width="42" height="42" viewBox="0 0 42 42" fill="none" xmlns="http://www.w3.org/2000/svg">
<rect width="42" height="42" rx="21" fill="white"/>
<path d="M28.6464 12.6465C28.8417 12.4513 29.1582 12.4513 29.3535 12.6465C29.5486 12.8418 29.5486 13.1584 29.3535 13.3536L21.707 21L28.9101 28.2032C29.1049 28.3985 29.1052 28.7151 28.9101 28.9102C28.7149 29.1055 28.3974 29.1055 28.2021 28.9102L20.999 21.7071L13.7968 28.9102C13.6016 29.1052 13.285 29.1052 13.0898 28.9102C12.8946 28.715 12.8948 28.3985 13.0898 28.2032L20.292 21L12.6464 13.3536C12.4512 13.1583 12.4512 12.8418 12.6464 12.6465C12.8417 12.4513 13.1582 12.4513 13.3535 12.6465L21 20.293L28.6464 12.6465Z" fill="#3D627D"/>
</svg>
