<svg width="8" height="8" viewBox="0 0 8 8" fill="none" xmlns="http://www.w3.org/2000/svg">
<path d="M7.14706 0.146137C7.34221 -0.0487693 7.65887 -0.0486554 7.85409 0.146137C8.04929 0.341324 8.04914 0.657885 7.85409 0.853168L4.70663 3.99965L7.85507 7.14809C8.04978 7.34335 8.05004 7.66002 7.85507 7.85512C7.65997 8.05007 7.34329 8.04982 7.14804 7.85512L4.00058 4.70766L0.854095 7.85512C0.658959 8.05002 0.342287 8.04988 0.147063 7.85512C-0.0481298 7.65993 -0.0479783 7.34337 0.147063 7.14809L3.29355 4.00063L0.146087 0.853168C-0.0486201 0.657949 -0.0487711 0.34126 0.146087 0.146137C0.341203 -0.0488232 0.657867 -0.0486017 0.853118 0.146137L4.00058 3.2936L7.14706 0.146137Z" fill="#FF6B6B"/>
</svg>
