<svg width="25" height="25" viewBox="0 0 25 25" fill="none" xmlns="http://www.w3.org/2000/svg">
<path d="M19.8057 0C22.6744 2.89027e-05 25 2.32558 25 5.19434V19.8057C25 22.6744 22.6744 25 19.8057 25H5.19434C2.32558 25 2.89019e-05 22.6744 0 19.8057V5.19434C3.40567e-05 2.32558 2.32558 3.40557e-05 5.19434 0H19.8057ZM19.583 15.1484C21.7105 8.98205 16.0179 3.28946 9.85156 5.41699C7.77356 6.13385 6.13389 7.77358 5.41699 9.85156C3.28946 16.0178 8.98221 21.7105 15.1484 19.583C17.2266 18.8661 18.8661 17.2264 19.583 15.1484ZM12.5 7.5C15.2571 7.5 17.5 9.74285 17.5 12.5C17.5 15.2571 15.2571 17.5 12.5 17.5C9.74285 17.5 7.5 15.2571 7.5 12.5C7.5 9.74285 9.74285 7.5 12.5 7.5ZM20.6992 3.94141C20.4748 3.81155 20.2123 3.77728 19.9619 3.84473C19.7114 3.91192 19.5017 4.07222 19.3721 4.29688C19.1891 4.61422 19.1959 5.00556 19.4111 5.33496C19.4264 5.35861 19.4444 5.38211 19.4629 5.40332C19.6717 5.64275 19.9444 5.75293 20.2119 5.75293C20.6516 5.75288 21.0767 5.45415 21.1748 4.94043C21.18 4.9139 21.183 4.88621 21.1846 4.85938C21.2061 4.4669 21.0166 4.12449 20.6992 3.94141Z" fill="white"/>
</svg>
