<svg width="46" height="50" viewBox="0 0 46 50" fill="none" xmlns="http://www.w3.org/2000/svg">
<path d="M45.6138 7.57812C45.6137 27.3619 31.417 30.3487 24.7222 30.3486C13.0337 30.3484 6.93107 36.0701 5.26318 37.7188C7.89474 31.6491 15.5884 22.1622 24.7222 20.999C29.9402 20.3346 42.1577 20.3275 45.6138 7.57812ZM43.4204 0C43.4204 15.6076 32.9127 18.6427 27.6313 18.6426C18.4108 18.6424 13.5968 23.8446 12.2808 25.1455C14.4738 21.2954 20.426 12.1901 27.6313 11.2725C31.7476 10.7483 40.6939 10.0582 43.4204 0Z" fill="white"/>
<path d="M45.3135 32.2249C47.5132 31.7914 37.3944 43.4964 22.4365 43.4964C11.8783 43.4965 2.93305 48.1207 0 49.9993C2.05321 44.2188 10.1188 32.2251 26.8359 32.6585C27.7344 32.6818 25.956 34.8257 22.4365 35.2591C20.6769 35.476 19.0699 38.1516 22.4365 39.1615C32.555 42.1963 43.1138 32.6585 45.3135 32.2249ZM42.9805 30.7025C46.4429 30.5836 35.9947 37.6682 29.8105 38.5042L29.5195 38.5394L29.9873 38.1585C34.684 34.2531 35.0988 31.116 35.9463 30.9661C37.2613 30.7347 36.3945 33.4988 34.2139 35.7806C37.2124 33.337 38.2061 30.8671 39.4629 30.8236C40.3422 30.7933 38.6594 33.0196 37.8105 33.9163C39.9784 32.9744 41.6615 30.7478 42.9805 30.7025Z" fill="white"/>
</svg>
