<svg width="80" height="80" viewBox="0 0 80 80" fill="none" xmlns="http://www.w3.org/2000/svg">
<g clip-path="url(#clip0_25_2913)">
<path d="M5.93153 10.7312C5.93153 4.80748 10.7122 0 16.6066 0C22.4993 0 27.28 4.80575 27.28 10.7312C27.28 16.66 22.4993 21.4658 16.6066 21.4658C10.7122 21.464 5.93153 16.66 5.93153 10.7312ZM54.3352 10.7312C54.3352 4.80748 59.121 0 65.0137 0C70.9064 0 75.6888 4.80575 75.6888 10.7312C75.6888 16.66 70.9081 21.4658 65.0137 21.4658C59.1227 21.464 54.3352 16.66 54.3352 10.7312ZM79.5742 54.6837C72.9585 70.0632 57.4649 80 40.1018 80C22.3685 80 6.78368 70.013 0.396882 54.5557C-0.697997 51.9079 0.550097 48.8691 3.18573 47.7685C3.83301 47.5002 4.5044 47.3722 5.16546 47.3722C7.18995 47.3722 9.11116 48.5766 9.93576 50.5754C14.7164 62.1442 26.5569 69.6184 40.1018 69.6184C53.3402 69.6184 65.1118 62.139 70.0921 50.5616C71.2249 47.9294 74.2651 46.7163 76.8801 47.8584C79.5019 48.9954 80.707 52.0516 79.5742 54.6837Z" fill="#243E52"/>
</g>
<defs>
<clipPath id="clip0_25_2913">
<rect width="80" height="80" fill="white"/>
</clipPath>
</defs>
</svg>
