<svg width="46" height="46" viewBox="0 0 46 46" fill="none" xmlns="http://www.w3.org/2000/svg">
<path d="M23 0C10.2975 0 0 10.2975 0 23C0 35.7025 10.2975 46 23 46C35.7025 46 46 35.7025 46 23C46 10.2975 35.7025 0 23 0ZM31.0968 24.0173L19.8961 31.6423C19.5191 31.8988 19.0312 31.926 18.6281 31.7128C18.225 31.4996 17.9729 31.081 17.9729 30.625V15.375C17.9729 14.919 18.225 14.5004 18.6281 14.2872C19.0312 14.074 19.5191 14.1011 19.8961 14.3577L31.0968 21.9827C31.4334 22.2119 31.635 22.5927 31.635 23C31.635 23.4073 31.4335 23.7881 31.0968 24.0173Z" fill="#D0EF39" fill-opacity="0.5"/>
<path fill-rule="evenodd" clip-rule="evenodd" d="M19.8961 31.6423L31.0968 24.0173C31.4335 23.7881 31.635 23.4073 31.635 23C31.635 22.5927 31.4334 22.2119 31.0968 21.9827L19.8961 14.3577C19.5191 14.1011 19.0312 14.074 18.6281 14.2872C18.225 14.5004 17.9729 14.919 17.9729 15.375V30.625C17.9729 31.081 18.225 31.4996 18.6281 31.7128C19.0312 31.926 19.5191 31.8988 19.8961 31.6423Z" fill="white"/>
</svg>
