<svg width="25" height="25" viewBox="0 0 25 25" fill="none" xmlns="http://www.w3.org/2000/svg">
<path fill-rule="evenodd" clip-rule="evenodd" d="M12.4944 0C15.8109 0.00011097 18.992 1.31712 21.3371 3.6612C23.6823 6.00536 25 9.18492 25 12.5C25 15.8151 23.6823 18.9946 21.3371 21.3388C18.992 23.6829 15.8109 24.9999 12.4944 25C10.0482 25.0045 7.65478 24.286 5.61617 22.9347L0.81082 24.4721L2.3743 19.8279C1.02396 17.9627 0.215327 15.7607 0.0373669 13.4653C-0.140493 11.1701 0.318925 8.87052 1.3655 6.81988C2.41219 4.76914 4.00506 3.0466 5.96864 1.8433C7.93233 0.640013 10.1911 0.00202582 12.4944 0ZM8.4459 5.81927C8.11248 5.81936 7.79089 5.94386 7.54538 6.16937L6.27692 7.44389C5.00915 8.77738 6.41132 12.3124 9.55194 15.4488C12.6927 18.5852 16.224 20.05 17.5583 18.7235L18.8267 17.4556C19.0483 17.211 19.1715 16.8921 19.1715 16.5621C19.1714 16.2322 19.0482 15.9143 18.8267 15.6697L16.9605 13.7646C16.8123 13.6087 16.626 13.4936 16.4202 13.431C16.2145 13.3685 15.9958 13.3609 15.786 13.4078C15.576 13.4549 15.3819 13.5561 15.2225 13.7005C15.0632 13.8449 14.944 14.0277 14.8766 14.2317C14.7701 14.52 14.5619 14.7605 14.2921 14.9077C14.0223 15.0547 13.7082 15.0989 13.4082 15.0325C12.0714 14.6991 10.27 12.9495 9.93646 11.5656C9.85497 11.2646 9.89334 10.9438 10.0425 10.6699C10.1917 10.3962 10.4404 10.1905 10.7375 10.0956C10.9381 10.0282 11.1178 9.90982 11.2602 9.75326C11.4024 9.5968 11.5027 9.4069 11.5508 9.20104C11.5988 8.995 11.5937 8.77927 11.5353 8.57593C11.4769 8.37285 11.3669 8.18821 11.2171 8.03918L9.34753 6.16937C9.10194 5.94373 8.77948 5.81929 8.4459 5.81927Z" fill="white"/>
</svg>
